<svg width="37" height="48" viewBox="0 0 37 48" fill="none" xmlns="http://www.w3.org/2000/svg">
<g clip-path="url(#clip0_452_15830)">
<path d="M10.9141 20.6374C10.87 20.4423 10.7871 20.2581 10.6703 20.0953C10.5536 19.9326 10.4053 19.7947 10.2342 19.6898C10.0631 19.5849 9.87267 19.5151 9.67405 19.4844C9.47544 19.4538 9.27267 19.4629 9.07765 19.5113C8.88264 19.5597 8.69931 19.6463 8.53846 19.7662C8.3776 19.8861 8.24246 20.0367 8.14097 20.2092C8.03948 20.3818 7.97368 20.5728 7.94746 20.771C7.92124 20.9692 7.93511 21.1706 7.98827 21.3634L12.5127 39.3633C12.5942 39.6846 12.7803 39.97 13.042 40.175C13.3038 40.38 13.6264 40.493 13.9595 40.4964C14.2926 40.4998 14.6175 40.3935 14.8834 40.1939C15.1493 39.9944 15.3414 39.7129 15.4295 39.3933L18.5001 28.2064L21.5707 39.3963C21.6588 39.7159 21.8508 39.9974 22.1168 40.1969C22.3827 40.3965 22.7076 40.5028 23.0407 40.4994C23.3738 40.496 23.6964 40.383 23.9581 40.178C24.2199 39.973 24.406 39.6876 24.4875 39.3663L29.0119 21.3664C29.0984 20.9841 29.0311 20.5834 28.8243 20.2499C28.6176 19.9163 28.2878 19.6765 27.9056 19.5817C27.5234 19.4868 27.119 19.5445 26.779 19.7423C26.439 19.9402 26.1903 20.2625 26.0861 20.6404L22.9612 33.0724L19.9539 22.1074C19.8662 21.7909 19.6764 21.5118 19.4138 21.3128C19.1512 21.1139 18.8302 21.0062 18.5001 21.0062C18.17 21.0062 17.849 21.1139 17.5864 21.3128C17.3238 21.5118 17.134 21.7909 17.0462 22.1074L14.039 33.0724L10.9141 20.6404V20.6374Z" fill="#4B87E4"/>
<path d="M36.598 42.0003V13.5004L23.0246 0.000366211H6.43495C4.83501 0.000366211 3.30059 0.632507 2.16925 1.75772C1.03792 2.88294 0.402344 4.40906 0.402344 6.00036V42.0003C0.402344 43.5916 1.03792 45.1177 2.16925 46.243C3.30059 47.3682 4.83501 48.0003 6.43495 48.0003H30.5654C32.1653 48.0003 33.6998 47.3682 34.8311 46.243C35.9624 45.1177 36.598 43.5916 36.598 42.0003ZM23.0246 9.00036C23.0246 10.1938 23.5013 11.3384 24.3498 12.1823C25.1983 13.0262 26.3491 13.5004 27.5491 13.5004H33.5817V42.0003C33.5817 42.796 33.2639 43.559 32.6982 44.1216C32.1326 44.6842 31.3654 45.0003 30.5654 45.0003H6.43495C5.63498 45.0003 4.86777 44.6842 4.3021 44.1216C3.73644 43.559 3.41865 42.796 3.41865 42.0003V6.00036C3.41865 5.20471 3.73644 4.44165 4.3021 3.87904C4.86777 3.31643 5.63498 3.00036 6.43495 3.00036H23.0246V9.00036Z" fill="#4B87E4"/>
</g>
<defs>
<clipPath id="clip0_452_15830">
<rect width="37" height="48" fill="white" transform="translate(0 0.000305176)"/>
</clipPath>
</defs>
</svg>
