<svg width="37" height="48" viewBox="0 0 37 48" fill="none" xmlns="http://www.w3.org/2000/svg">
<g clip-path="url(#clip0_452_15826)">
<path d="M36.598 42.0003V13.5004L23.0246 0.000366211H6.43495C4.83501 0.000366211 3.30059 0.632507 2.16925 1.75772C1.03792 2.88294 0.402344 4.40906 0.402344 6.00036V42.0003C0.402344 43.5916 1.03792 45.1177 2.16925 46.243C3.30059 47.3682 4.83501 48.0003 6.43495 48.0003H30.5654C32.1653 48.0003 33.6998 47.3682 34.8311 46.243C35.9624 45.1177 36.598 43.5916 36.598 42.0003ZM23.0246 9.00036C23.0246 10.1938 23.5013 11.3384 24.3498 12.1823C25.1983 13.0262 26.3491 13.5004 27.5491 13.5004H33.5817V42.0003C33.5817 42.796 33.2639 43.559 32.6982 44.1216C32.1326 44.6842 31.3654 45.0003 30.5654 45.0003H6.43495C5.63498 45.0003 4.86777 44.6842 4.3021 44.1216C3.73644 43.559 3.41865 42.796 3.41865 42.0003V6.00036C3.41865 5.20471 3.73644 4.44165 4.3021 3.87904C4.86777 3.31643 5.63498 3.00036 6.43495 3.00036H23.0246V9.00036Z" fill="#EA4335"/>
<path d="M8.25372 42.2613C7.66582 42.0275 7.19216 41.5757 6.93258 41.0013C6.3444 39.8373 6.54046 38.6733 7.17388 37.6953C7.77111 36.7743 8.76046 35.9913 9.87951 35.3343C11.297 34.5348 12.7953 33.8862 14.3497 33.3993C15.5568 31.2411 16.6266 29.0097 17.553 26.7184C16.9991 25.4667 16.5649 24.1659 16.256 22.8334C15.9966 21.6334 15.897 20.4454 16.1172 19.4254C16.3434 18.3634 16.9437 17.4094 18.0778 16.9564C18.657 16.7254 19.2843 16.5964 19.8936 16.7254C20.2001 16.7903 20.4882 16.9222 20.7371 17.1116C20.986 17.301 21.1893 17.5431 21.3324 17.8204C21.5978 18.3124 21.6944 18.8884 21.7155 19.4344C21.7366 19.9984 21.6793 20.6224 21.5737 21.2764C21.3203 22.8064 20.7593 24.6784 20.0052 26.6584C20.8374 28.4284 21.8267 30.1211 22.9612 31.7163C24.3038 31.6109 25.6541 31.6612 26.985 31.8663C28.0829 32.0643 29.1989 32.4513 29.8806 33.2613C30.2426 33.6933 30.4628 34.2213 30.4839 34.8153C30.505 35.3913 30.3421 35.9613 30.0676 36.5043C29.8299 37.0075 29.4612 37.4384 28.9999 37.7523C28.5438 38.0482 28.0054 38.1931 27.4615 38.1663C26.4631 38.1243 25.4889 37.5783 24.6473 36.9153C23.624 36.0738 22.702 35.1175 21.8995 34.0653C19.8597 34.2956 17.8442 34.7031 15.8759 35.2833C14.9746 36.8732 13.9457 38.3881 12.7993 39.8133C11.9185 40.8633 10.9624 41.7813 10.0032 42.1743C9.45206 42.4223 8.82695 42.4534 8.25372 42.2613V42.2613ZM12.4132 36.5583C11.9125 36.7863 11.448 37.0263 11.0287 37.2723C10.0394 37.8543 9.3969 38.4213 9.07717 38.9133C8.79364 39.3483 8.7876 39.6633 8.95652 39.9963C8.98668 40.0623 9.01684 40.1043 9.03494 40.1283C9.07093 40.1188 9.1062 40.1068 9.14051 40.0923C9.55375 39.9243 10.2113 39.3873 11.0559 38.3763C11.5362 37.7914 11.9891 37.1848 12.4132 36.5583V36.5583ZM17.3599 32.5683C18.3672 32.3346 19.3835 32.1414 20.4064 31.9893C19.8572 31.1534 19.344 30.2946 18.8681 29.4154C18.395 30.4791 17.8921 31.5295 17.3599 32.5653V32.5683ZM24.7378 33.9183C25.1903 34.4073 25.6306 34.8183 26.0499 35.1483C26.7738 35.7183 27.2775 35.9073 27.552 35.9163C27.6255 35.9259 27.7001 35.91 27.7632 35.8713C27.8887 35.7728 27.9863 35.6436 28.0467 35.4963C28.1539 35.3136 28.215 35.1077 28.2247 34.8963C28.2229 34.8259 28.195 34.7585 28.1462 34.7073C27.9894 34.5213 27.543 34.2513 26.5838 34.0803C25.9737 33.9789 25.3564 33.9257 24.7378 33.9213V33.9183ZM18.7354 23.4004C18.9892 22.5859 19.1907 21.7562 19.3386 20.9164C19.4321 20.3524 19.4683 19.8874 19.4533 19.5214C19.4541 19.3194 19.4215 19.1187 19.3567 18.9274C19.2058 18.9459 19.0585 18.9864 18.9194 19.0474C18.657 19.1524 18.4428 19.3654 18.3282 19.8964C18.2075 20.4724 18.2377 21.3034 18.4669 22.3624C18.5393 22.6954 18.6298 23.0434 18.7384 23.4004H18.7354Z" fill="#EA4335"/>
</g>
<defs>
<clipPath id="clip0_452_15826">
<rect width="37" height="48" fill="white" transform="translate(0 0.000305176)"/>
</clipPath>
</defs>
</svg>
