
<svg xmlns="http://www.w3.org/2000/svg" xmlns:xlink="http://www.w3.org/1999/xlink" viewBox="0 0 628.52 284.99"><defs><style>.cls-1{fill:url(#linear-gradient);}.cls-2{fill:url(#radial-gradient);}.cls-3{fill:none;}.cls-4{fill:url(#radial-gradient-2);}.cls-5{fill:url(#radial-gradient-3);}.cls-6{fill:url(#linear-gradient-7);}.cls-7{fill:url(#linear-gradient-8);}.cls-8{fill:url(#linear-gradient-9);}.cls-9{fill:url(#linear-gradient-10);}</style><linearGradient id="linear-gradient" x1="600.89" y1="147.17" x2="266.84" y2="147.17" gradientUnits="userSpaceOnUse"><stop offset="0" stop-color="#71dff8"/><stop offset="0.11" stop-color="#71adf8"/><stop offset="0.48" stop-color="#825fed"/><stop offset="1" stop-color="#90c"/></linearGradient><radialGradient id="radial-gradient" cx="1384.06" cy="-1863.05" r="0.44" gradientTransform="matrix(109.77, 109.77, 109.77, -109.77, 52694.94, -356279.75)" gradientUnits="userSpaceOnUse"><stop offset="0" stop-color="#71bcf8"/><stop offset="0.37" stop-color="#71adf8"/><stop offset="0.45" stop-color="#72a8f7"/><stop offset="0.55" stop-color="#759af5"/><stop offset="0.65" stop-color="#7a83f2"/><stop offset="0.76" stop-color="#8162ed"/><stop offset="0.77" stop-color="#825fed"/><stop offset="1" stop-color="#7000e0"/></radialGradient><radialGradient id="radial-gradient-2" cx="119.38" cy="145.89" r="51.08" gradientUnits="userSpaceOnUse"><stop offset="0.19" stop-color="#71d5f8"/><stop offset="0.27" stop-color="#72d0f8"/><stop offset="0.38" stop-color="#74c1f6"/><stop offset="0.5" stop-color="#77a8f4"/><stop offset="0.62" stop-color="#7c85f1"/><stop offset="0.73" stop-color="#825fed"/><stop offset="1" stop-color="#7000e0"/></radialGradient><radialGradient id="radial-gradient-3" cx="227.5" cy="202.16" r="31.45" gradientTransform="matrix(1.02, 0.02, -0.02, 1, -107.87, -60.34)" gradientUnits="userSpaceOnUse"><stop offset="0" stop-color="#95dbf7"/><stop offset="0.49" stop-color="#83a3f2"/><stop offset="0.5" stop-color="#82a1f2"/><stop offset="0.8" stop-color="#7476ee"/><stop offset="0.95" stop-color="#6f65ec"/></radialGradient><linearGradient id="linear-gradient-7" x1="103.42" y1="100.78" x2="55.89" y2="53.26" xlink:href="#linear-gradient"/><linearGradient id="linear-gradient-8" x1="74.57" y1="159.95" x2="18.27" y2="216.25" xlink:href="#linear-gradient"/><linearGradient id="linear-gradient-9" x1="135.37" y1="192.25" x2="178.47" y2="235.36" xlink:href="#linear-gradient"/><linearGradient id="linear-gradient-10" x1="166.63" y1="131.56" x2="211.9" y2="86.28" xlink:href="#linear-gradient"/></defs><title>1112021 Lynkey logo option 7</title><g id="OBJECTS"><path class="cls-1" d="M266.28,121.7h12.33a.22.22,0,0,1,.18.23v38.66H320.5c.12,0,.18.06.18.19v11.63q0,.24-.18.24H266.28c-.13,0-.19-.08-.19-.24V121.93C266.11,121.78,266.18,121.7,266.28,121.7Z"/><path class="cls-1" d="M307.91,121.7h12.51L335.09,142q14.19-19.84,14.59-20.27H362.2a.23.23,0,0,1,.19.23q-1.71,2.19-21,29.16v21.32q0,.24-.18.24H328.87c-.13,0-.19-.08-.19-.24V151.09l-21-29.25Z"/><path class="cls-1" d="M366.27,121.7h42.12q5.63,0,10.22,6.27a15.24,15.24,0,0,1,2.07,7.4v37q0,.24-.18.24H408.13c-.13,0-.19-.08-.19-.24V142.92q0-6.73-4.52-8.78a6.7,6.7,0,0,0-2-.33H378.79v38.6q0,.24-.18.24H366.27q-.18,0-.18-.24V121.93C366.11,121.78,366.18,121.7,366.27,121.7Z"/><path class="cls-1" d="M427,121.7h12.33a.22.22,0,0,1,.18.23v20.28L464.2,121.7h17.07v.14q-1.59,1.62-20.89,17.43v.09l20.89,33v.14H465q-.25-.24-15.37-24.17l-10.15,8.31v15.72q0,.24-.18.24H427c-.13,0-.19-.08-.19-.24V121.93C426.81,121.78,426.88,121.7,427,121.7Z"/><path class="cls-1" d="M487.57,121.7h54.22a.22.22,0,0,1,.18.23v11.64q0,.24-.18.24H487.57c-.13,0-.19-.08-.19-.24V121.93C487.4,121.78,487.47,121.7,487.57,121.7Zm0,19.94h54.22a.22.22,0,0,1,.18.24v10.59c0,.15-.06.23-.18.23H487.57c-.13,0-.19-.08-.19-.23V141.88C487.4,141.72,487.47,141.64,487.57,141.64Zm0,19h54.22c.12,0,.18.06.18.19v11.63q0,.24-.18.24H487.57c-.13,0-.19-.08-.19-.24V160.78C487.4,160.65,487.47,160.59,487.57,160.59Z"/><path class="cls-1" d="M547.06,121.7h12.52L574.25,142q14.19-19.84,14.59-20.27h12.52a.22.22,0,0,1,.18.23q-1.69,2.19-21,29.16v21.32q0,.24-.18.24H568c-.13,0-.19-.08-.19-.24V151.09l-21-29.25Z"/><rect class="cls-2" x="71.47" y="97.53" width="97.07" height="97.07" transform="translate(-68.14 127.64) rotate(-45)"/><polygon class="cls-3" points="188.94 147.26 120.75 215.45 51.37 146.07 120.01 77.43 188.94 147.26"/><rect class="cls-4" x="85.59" y="112.11" width="67.57" height="67.57"/><polygon class="cls-5" points="153.04 146.86 118.73 179.97 85.43 145.89 120.03 112.44 153.04 146.86"/><polygon class="cls-6" points="120.75 31.75 91.32 48.74 20.71 89.5 20.71 115.42 51.37 146.07 120.01 77.43 148.71 48.73 120.75 31.75"/><polyline class="cls-7" points="20.71 113.8 20.71 176.54 20.71 204.82 89.81 244.72 120.01 214.53"/><polygon class="cls-8" points="187.65 146.07 118.56 214.71 88.96 244.31 119.59 262.59 149.29 245.45 219.33 205.01 219.33 178.2 187.65 146.07"/><polyline class="cls-9" points="219.33 181.06 219.33 113.94 219.33 89.5 147.79 48.2 119.38 76.61"/></g></svg>
