<svg width="239" height="56" viewBox="0 0 239 56" fill="none" xmlns="http://www.w3.org/2000/svg">
<path d="M89.9992 39.8271C88.025 39.8271 86.2154 39.4922 84.584 38.8155C82.9457 38.1388 81.5542 37.2228 80.4026 36.0676C79.251 34.9124 78.3598 33.5522 77.7223 31.98C77.0848 30.4147 76.7695 28.7331 76.7695 26.9491C76.7695 25.0693 77.1123 23.3468 77.7909 21.7815C78.4764 20.2161 79.4086 18.8559 80.5945 17.7144C81.7804 16.5728 83.1787 15.6774 84.7896 15.0348C86.4005 14.3923 88.1347 14.071 89.9923 14.071C91.1919 14.071 92.3504 14.2283 93.4677 14.5359C94.585 14.8435 95.6338 15.2741 96.6072 15.8346C97.5806 16.3951 98.4648 17.0718 99.2531 17.8647C100.041 18.6577 100.72 19.5463 101.282 20.5169L97.087 23.0665C96.333 21.7405 95.3802 20.7015 94.2286 19.9359C93.077 19.1703 91.6649 18.7875 89.9923 18.7875C88.7722 18.7875 87.6412 18.9994 86.6061 19.4164C85.571 19.8334 84.6799 20.4075 83.9259 21.1458C83.1719 21.8772 82.5824 22.7453 82.1642 23.7364C81.7461 24.7276 81.5267 25.8007 81.5267 26.9559C81.5267 28.0838 81.7392 29.1433 82.1642 30.1207C82.5892 31.0982 83.1719 31.9595 83.9122 32.6909C84.6525 33.4223 85.5368 34.0033 86.5581 34.4203C87.5795 34.8372 88.6899 35.0491 89.8895 35.0491C91.6786 35.0491 93.1867 34.6185 94.4205 33.7572C95.6544 32.896 96.614 31.7954 97.2927 30.4557L101.666 32.6362C101.104 33.6957 100.412 34.6732 99.6027 35.5618C98.7939 36.4504 97.889 37.2091 96.8882 37.8448C95.8874 38.4805 94.8044 38.9727 93.6459 39.3145C92.4875 39.6562 91.2673 39.8271 89.9992 39.8271Z" fill="#2D2D2D"/>
<path d="M103.4 13.7568H108.199V39.7863H103.4V13.7568Z" fill="#2D2D2D"/>
<path d="M121.181 39.8275C119.557 39.8275 118.076 39.5609 116.733 39.0277C115.389 38.4945 114.244 37.77 113.291 36.8404C112.339 35.9107 111.598 34.8239 111.071 33.5662C110.543 32.3084 110.275 30.9755 110.275 29.5469C110.275 28.0978 110.55 26.7444 111.105 25.4798C111.66 24.2152 112.414 23.1147 113.381 22.1919C114.347 21.2623 115.478 20.5309 116.787 19.9909C118.09 19.4509 119.495 19.1775 121.003 19.1775C122.532 19.1775 123.951 19.4236 125.253 19.9157C126.555 20.4079 127.68 21.1051 128.626 21.9937C129.565 22.8823 130.298 23.935 130.833 25.1449C131.361 26.3547 131.628 27.674 131.628 29.1026V30.7841H114.834C115.163 32.2401 115.883 33.409 116.986 34.3044C118.09 35.193 119.488 35.6442 121.181 35.6442C122.525 35.6442 123.683 35.3161 124.677 34.6598C125.664 34.0036 126.405 33.1219 126.898 32.0214L130.812 34.2702C129.921 35.9381 128.667 37.2778 127.056 38.2963C125.445 39.3148 123.485 39.8275 121.181 39.8275ZM121.003 23.3608C119.57 23.3608 118.33 23.6752 117.281 24.3109C116.232 24.9398 115.499 25.7737 115.074 26.8127H126.788C126.432 25.6849 125.753 24.8236 124.739 24.2426C123.724 23.6616 122.491 23.3608 121.003 23.3608Z" fill="#2D2D2D"/>
<path d="M131.271 19.2117H136.248L141.574 33.7029L146.797 19.2117H151.699L143.939 39.7933H139.141L131.271 19.2117Z" fill="#2D2D2D"/>
<path d="M162.104 39.8275C160.48 39.8275 158.999 39.5609 157.662 39.0277C156.319 38.4945 155.174 37.77 154.221 36.8404C153.268 35.9107 152.528 34.8239 152 33.5662C151.472 32.3153 151.205 30.9755 151.205 29.5469C151.205 28.0978 151.479 26.7444 152.034 25.4798C152.59 24.2152 153.344 23.1147 154.31 22.1919C155.277 21.2623 156.408 20.5309 157.717 19.9909C159.019 19.4509 160.425 19.1775 161.933 19.1775C163.461 19.1775 164.88 19.4236 166.183 19.9157C167.485 20.4079 168.609 21.1051 169.555 21.9937C170.494 22.8823 171.228 23.935 171.762 25.1449C172.29 26.3547 172.558 27.674 172.558 29.1026V30.7841H155.763C156.093 32.2401 156.812 33.409 157.916 34.3044C159.019 35.193 160.418 35.6442 162.111 35.6442C163.455 35.6442 164.613 35.3161 165.607 34.6598C166.594 34.0036 167.334 33.1219 167.828 32.0214L171.742 34.2702C170.851 35.9381 169.596 37.2778 167.986 38.2963C166.368 39.3148 164.407 39.8275 162.104 39.8275ZM161.926 23.3608C160.493 23.3608 159.253 23.6752 158.204 24.3109C157.155 24.9398 156.422 25.7737 155.997 26.8127H167.711C167.362 25.6849 166.676 24.8236 165.662 24.2426C164.654 23.6547 163.407 23.3608 161.926 23.3608Z" fill="#2D2D2D"/>
<path d="M174.664 19.2117H179.394V22.274C180.36 20.237 182.122 19.2117 184.686 19.2117C185.44 19.2117 186.112 19.2937 186.715 19.4577C187.318 19.6218 187.853 19.8337 188.319 20.0934L186.523 24.598C186.173 24.3656 185.776 24.1674 185.344 24.017C184.912 23.8666 184.35 23.7914 183.671 23.7914C182.28 23.7914 181.231 24.1811 180.511 24.9671C179.791 25.7532 179.435 27.0383 179.435 28.8224V39.8001H174.671V19.2117H174.664Z" fill="#2D2D2D"/>
<path d="M189.977 14.1123H194.741L202.534 24.9124L210.65 14.1123H215.202V39.7932H210.404V21.7817L202.5 32.404L194.775 21.9594V39.7932H189.977V14.1123Z" fill="#2D2D2D"/>
<path d="M228.253 39.8275C226.628 39.8275 225.147 39.5609 223.811 39.0277C222.467 38.4945 221.322 37.77 220.37 36.8404C219.417 35.9107 218.676 34.8239 218.149 33.5662C217.621 32.3153 217.354 30.9755 217.354 29.5469C217.354 28.0978 217.628 26.7444 218.183 25.4798C218.738 24.2152 219.492 23.1147 220.459 22.1919C221.425 21.2623 222.556 20.5309 223.866 19.9909C225.168 19.4509 226.573 19.1775 228.081 19.1775C229.61 19.1775 231.029 19.4236 232.331 19.9157C233.634 20.4079 234.758 21.1051 235.704 21.9937C236.643 22.8823 237.376 23.935 237.911 25.1449C238.439 26.3547 238.706 27.674 238.706 29.1026V30.7841H221.912C222.241 32.2401 222.961 33.409 224.064 34.3044C225.168 35.193 226.566 35.6442 228.259 35.6442C229.603 35.6442 230.761 35.3161 231.755 34.6598C232.742 34.0036 233.483 33.1219 233.976 32.0214L237.89 34.2702C236.999 35.9381 235.745 37.2778 234.134 38.2963C232.516 39.3148 230.556 39.8275 228.253 39.8275ZM228.074 23.3608C226.642 23.3608 225.401 23.6752 224.352 24.3109C223.303 24.9398 222.57 25.7737 222.145 26.8127H233.86C233.51 25.6849 232.825 24.8236 231.81 24.2426C230.803 23.6547 229.555 23.3608 228.074 23.3608Z" fill="#2D2D2D"/>
<path d="M32.4648 0L64.4183 26.9927L48.5886 0H32.4648Z" fill="#63C7CE"/>
<path d="M48.5898 0V14.5192V18.6417V42.516L64.4196 26.9927L48.5898 0Z" fill="#3EBCBB"/>
<path d="M34.7422 26.9929V56.0001L64.4191 26.9929H34.7422Z" fill="#63C7CE"/>
<path d="M32.4652 0L0.511719 26.9927L16.3415 0H32.4652Z" fill="#63C7CE"/>
<path d="M16.3415 0V14.5192V18.6417V42.516L0.511719 26.9927L16.3415 0Z" fill="#3EBCBB"/>
<path d="M30.1823 26.9929V56.0001L0.511719 26.9929H30.1823Z" fill="#63C7CE"/>
</svg>
