<svg width="40" height="40" viewBox="0 0 40 40" fill="none" xmlns="http://www.w3.org/2000/svg">
<rect width="40" height="40" rx="20" fill="white" fill-opacity="0.1"/>
<path fill-rule="evenodd" clip-rule="evenodd" d="M27.3907 21.9512C27.0367 22.1717 26.6198 22.199 26.3029 22.0229C25.9004 21.799 25.6791 21.2746 25.6791 20.5454V18.3634C25.6791 17.3098 25.2562 16.56 24.5492 16.3576C23.351 16.0137 22.4499 17.458 22.1112 18.0005L19.998 21.3761V17.2502C19.9743 16.301 19.6613 15.7332 19.0672 15.562C18.6741 15.4488 18.0859 15.4941 17.5145 16.3556L12.7801 23.8454C12.1463 22.6599 11.8159 21.3399 11.8176 20C11.8176 15.4883 15.4875 11.818 19.998 11.818C24.5086 11.818 28.178 15.4883 28.178 20C28.178 20.0078 28.1799 20.0146 28.1804 20.022C28.1804 20.0298 28.179 20.0366 28.1794 20.0444C28.222 20.918 27.9349 21.6127 27.3907 21.9512ZM29.9956 20.0005V19.9776L29.9951 19.9551C29.9698 14.4605 25.4954 10 19.9975 10C14.4853 10 10 14.4859 10 20C10 25.5137 14.4853 30 19.998 30C22.5276 30 24.9418 29.0527 26.7951 27.3332C27.1635 26.9917 27.1852 26.4166 26.8436 26.0488C26.7632 25.9614 26.6659 25.8907 26.5574 25.8409C26.4489 25.7911 26.3314 25.763 26.2118 25.7585C26.0922 25.754 25.9729 25.773 25.8608 25.8144C25.7488 25.8559 25.6463 25.919 25.5593 26C24.0571 27.4015 22.0668 28.1823 19.998 28.182C17.5828 28.182 15.4097 27.1288 13.911 25.4585L18.1804 18.7044V21.818C18.1804 23.3137 18.7691 23.7971 19.2628 23.9385C19.7569 24.08 20.512 23.9834 21.3047 22.7151L23.653 18.9644C23.7283 18.8434 23.7976 18.739 23.861 18.6488V20.5454C23.861 21.9434 24.4294 23.0615 25.4201 23.6122C26.3133 24.1088 27.4363 24.0639 28.3513 23.4951C29.4603 22.8049 30.0579 21.5332 29.9956 20.0005Z" fill="white"/>
</svg>
