<svg width="25" height="24" viewBox="0 0 25 24" fill="none" xmlns="http://www.w3.org/2000/svg">
<path d="M16.7004 6.66649C16.4617 6.66649 16.2328 6.5787 16.064 6.42244C15.8953 6.26618 15.8005 6.05424 15.8005 5.83325C15.8005 5.61226 15.8953 5.40032 16.064 5.24405C16.2328 5.08779 16.4617 5 16.7004 5H22.1001C22.3387 5 22.5676 5.08779 22.7364 5.24405C22.9052 5.40032 23 5.61226 23 5.83325V10.961C23 11.182 22.9052 11.394 22.7364 11.5502C22.5676 11.7065 22.3387 11.7943 22.1001 11.7943C21.8614 11.7943 21.6325 11.7065 21.4637 11.5502C21.2949 11.394 21.2001 11.182 21.2001 10.961V7.8447L14.6377 13.9224C14.5541 14 14.4548 14.0616 14.3455 14.1036C14.2362 14.1456 14.1189 14.1672 14.0006 14.1672C13.8822 14.1672 13.765 14.1456 13.6557 14.1036C13.5463 14.0616 13.447 14 13.3634 13.9224L10.4008 11.1777L6.53824 14.7556C6.36925 14.9121 6.14006 15 5.90108 15C5.6621 15 5.43291 14.9121 5.26392 14.7556C5.09493 14.5992 5 14.387 5 14.1657C5 13.9444 5.09493 13.7322 5.26392 13.5758L9.76364 9.40954C9.84723 9.33194 9.94654 9.27037 10.0559 9.22837C10.1652 9.18636 10.2824 9.16474 10.4008 9.16474C10.5192 9.16474 10.6364 9.18636 10.7457 9.22837C10.855 9.27037 10.9544 9.33194 11.038 9.40954L14.0006 12.1542L19.9276 6.66649H16.7004Z" fill="currentColor"/>
<path d="M23.1877 23.9485H1.20104C1.04501 23.9494 0.890353 23.9193 0.746119 23.8598C0.601885 23.8002 0.470972 23.7125 0.361042 23.6018C0.250083 23.4948 0.16211 23.3663 0.102504 23.2242C0.0428976 23.0821 0.0129103 22.9293 0.0143756 22.7751V0.82847C-0.00479186 0.718186 -0.00479186 0.605421 0.0143756 0.495137C0.0560418 0.389624 0.119672 0.29418 0.201042 0.215137C0.275686 0.125568 0.372106 0.0566962 0.481042 0.0151368C0.591349 -0.00376782 0.704068 -0.00376782 0.814375 0.0151368C0.92905 -0.00504559 1.04637 -0.00504559 1.16104 0.0151368C1.26821 0.0599297 1.36391 0.128289 1.44104 0.215137C1.51859 0.294681 1.57776 0.390257 1.61438 0.495137C1.63949 0.604828 1.63949 0.718779 1.61438 0.82847V22.2418H23.1877C23.298 22.2435 23.4069 22.267 23.5082 22.3108C23.6094 22.3546 23.701 22.418 23.7778 22.4972C23.8546 22.5765 23.915 22.6701 23.9556 22.7727C23.9962 22.8752 24.0161 22.9848 24.0144 23.0951C24.0149 23.2039 23.994 23.3117 23.9528 23.4124C23.9117 23.5131 23.851 23.6046 23.7744 23.6818C23.6174 23.8385 23.409 23.9332 23.1877 23.9485Z" fill="currentColor"/>
</svg>
