<svg width="19" height="16" viewBox="0 0 19 16" fill="none" xmlns="http://www.w3.org/2000/svg">
<path d="M12.3574 4.55273C13.3066 4.55273 14.124 3.95508 14.4668 3.12891H17.3584C17.7979 3.12891 18.167 2.74219 18.167 2.27637C18.167 1.81055 17.7979 1.43262 17.3584 1.43262H14.4668C14.1328 0.597656 13.3154 0 12.3574 0C11.3994 0 10.582 0.597656 10.248 1.43262H0.834961C0.369141 1.43262 0 1.81055 0 2.27637C0 2.74219 0.369141 3.12891 0.834961 3.12891H10.248C10.5908 3.95508 11.4082 4.55273 12.3574 4.55273ZM12.3574 3.35742C11.751 3.35742 11.2764 2.87402 11.2764 2.27637C11.2764 1.66113 11.751 1.18652 12.3574 1.18652C12.9727 1.18652 13.4385 1.66113 13.4385 2.27637C13.4385 2.87402 12.9727 3.35742 12.3574 3.35742ZM0.808594 6.91699C0.369141 6.91699 0 7.29492 0 7.76074C0 8.21777 0.369141 8.60449 0.808594 8.60449H3.79688C4.13965 9.44824 4.95703 10.0371 5.91504 10.0371C6.86426 10.0371 7.68164 9.44824 8.02441 8.60449H17.332C17.7979 8.60449 18.167 8.22656 18.167 7.76074C18.167 7.29492 17.7979 6.91699 17.332 6.91699H8.02441C7.68164 6.08203 6.86426 5.49316 5.91504 5.49316C4.95703 5.49316 4.13965 6.08203 3.79688 6.91699H0.808594ZM5.91504 8.85059C5.30859 8.85059 4.8252 8.36719 4.8252 7.76074C4.8252 7.14551 5.30859 6.67969 5.91504 6.67969C6.52148 6.67969 6.99609 7.14551 6.99609 7.76074C6.99609 8.36719 6.52148 8.85059 5.91504 8.85059ZM12.3574 15.5215C13.3154 15.5215 14.1328 14.9238 14.4668 14.0889H17.3584C17.7979 14.0889 18.167 13.7109 18.167 13.2451C18.167 12.7705 17.7979 12.4014 17.3584 12.4014H14.4668C14.1328 11.5664 13.3154 10.9688 12.3574 10.9688C11.4082 10.9688 10.582 11.5664 10.248 12.4014H0.834961C0.369141 12.4014 0 12.7793 0 13.2451C0 13.7021 0.369141 14.0889 0.834961 14.0889H10.248C10.582 14.9238 11.3994 15.5215 12.3574 15.5215ZM12.3574 14.3262C11.751 14.3262 11.2764 13.8428 11.2764 13.2451C11.2764 12.6299 11.751 12.1641 12.3574 12.1641C12.9727 12.1641 13.4385 12.6299 13.4385 13.2451C13.4385 13.8428 12.9727 14.3262 12.3574 14.3262Z" fill="#0E0B23"/>
</svg>
